<?xml version="1.0" standalone="no"?>
<!DOCTYPE svg PUBLIC "-//W3C//DTD SVG 20010904//EN"
 "http://www.w3.org/TR/2001/REC-SVG-20010904/DTD/svg10.dtd">
<svg version="1.0" xmlns="http://www.w3.org/2000/svg"
 width="1024.000000pt" height="796.000000pt" viewBox="0 0 1024.000000 796.000000"
 preserveAspectRatio="xMidYMid meet">
<metadata>
Created by potrace 1.15, written by Peter Selinger 2001-2017
</metadata>
<g transform="translate(0.000000,796.000000) scale(0.100000,-0.100000)"
fill="#000000" stroke="none">
<path d="M3835 7863 c-22 -2 -116 -15 -210 -28 -93 -13 -222 -29 -285 -35
-229 -21 -547 -85 -735 -146 -300 -98 -493 -191 -740 -354 -326 -216 -514
-372 -666 -555 -45 -55 -118 -141 -161 -191 -90 -106 -261 -342 -344 -476 -75
-121 -285 -523 -323 -618 -30 -77 -150 -498 -171 -604 -28 -137 -27 -586 0
-654 6 -12 13 -48 16 -80 3 -31 8 -64 11 -72 3 -8 7 -24 9 -35 2 -11 8 -40 13
-65 9 -38 9 -33 5 37 -6 80 -5 82 16 76 18 -5 20 -2 15 19 -5 19 2 35 30 68
20 24 42 55 49 69 18 35 34 149 46 311 12 175 45 303 156 595 99 263 119 305
307 635 182 319 340 554 481 714 68 77 360 347 476 439 281 224 722 453 1028
533 53 14 134 37 180 50 46 13 131 28 190 34 314 31 502 45 502 37 0 -10 -118
-178 -215 -307 -39 -52 -113 -157 -164 -233 -51 -76 -138 -195 -195 -265 -221
-275 -594 -785 -837 -1147 -273 -406 -438 -644 -474 -685 -12 -14 -40 -62 -62
-107 -41 -82 -92 -158 -100 -149 -3 2 1 14 7 26 6 11 10 26 8 32 -2 5 -16 -13
-32 -41 -17 -32 -25 -58 -21 -71 5 -15 3 -18 -8 -14 -10 3 -24 -8 -41 -33 -14
-21 -26 -41 -26 -45 0 -17 17 -6 33 22 15 25 47 42 47 25 0 -14 -35 -73 -58
-97 -21 -23 -23 -28 -8 -28 9 0 27 12 40 26 13 15 34 36 46 48 175 165 293
300 482 551 58 77 138 180 178 228 60 72 75 85 83 72 5 -10 2 -107 -7 -248 -9
-128 -19 -306 -21 -397 -3 -91 -9 -196 -14 -235 -4 -38 -4 -158 1 -265 5 -107
7 -222 4 -255 -4 -40 -2 -53 4 -40 5 11 9 99 10 195 1 96 6 198 10 225 6 32 8
-39 6 -199 -2 -219 -4 -250 -19 -261 -11 -8 -17 -26 -17 -51 0 -21 -4 -44 -8
-51 -7 -11 3 -151 15 -203 6 -25 6 -25 13 5 4 17 9 64 10 105 5 149 18 135 18
-20 1 -106 -4 -179 -15 -230 -10 -47 -17 -146 -20 -267 -4 -168 -2 -193 11
-193 24 0 37 -36 32 -83 -3 -23 -5 -117 -5 -209 -1 -105 -5 -168 -11 -168 -6
0 -10 49 -10 128 0 145 -7 202 -25 202 -9 0 -14 -51 -18 -197 -8 -251 -8 -251
-61 -258 -22 -3 -320 -7 -661 -10 -623 -5 -887 -15 -937 -34 -15 -6 -33 -9
-40 -6 -7 2 -40 -6 -73 -18 -55 -20 -60 -25 -63 -54 -3 -30 -1 -33 23 -33 17
0 24 -4 19 -12 -5 -8 -2 -9 12 -4 27 11 25 10 69 3 225 -37 311 -48 435 -58
193 -14 1096 -19 1490 -9 173 5 520 14 770 20 661 15 1004 28 1180 45 85 8
250 19 365 25 116 5 278 14 360 20 83 5 224 10 315 10 182 0 842 27 878 35 37
9 655 24 716 18 l57 -6 -22 -23 c-13 -13 -17 -24 -11 -24 19 0 14 -15 -10 -25
-26 -12 -36 -35 -14 -35 9 0 16 -4 16 -8 0 -14 -33 -40 -55 -44 -14 -3 -20
-11 -18 -29 1 -17 -6 -28 -20 -35 -12 -5 -23 -18 -25 -29 -1 -11 -16 -28 -32
-37 -31 -17 -41 -53 -18 -60 7 -3 -1 -11 -17 -19 -18 -9 -30 -22 -30 -34 -1
-11 -4 -25 -8 -32 -4 -6 -5 -18 -1 -26 3 -8 -1 -17 -9 -20 -7 -3 -29 -32 -49
-65 -39 -66 -156 -212 -169 -212 -5 0 -66 -55 -136 -123 -185 -178 -461 -379
-718 -522 -77 -43 -167 -97 -200 -119 -33 -23 -107 -59 -165 -80 -58 -21 -167
-65 -242 -97 -152 -65 -257 -96 -363 -108 -121 -14 -405 -51 -551 -71 -154
-22 -401 -27 -469 -10 -22 6 -90 14 -150 19 -133 11 -200 23 -365 63 -69 17
-158 35 -199 40 -41 5 -96 18 -123 29 -27 10 -64 19 -84 19 -22 0 -37 6 -40
15 -4 8 -13 15 -21 15 -15 0 -108 50 -245 133 -49 30 -172 72 -162 56 3 -5 2
-9 -2 -9 -11 0 -153 80 -235 132 -42 26 -85 48 -96 48 -20 0 -119 54 -232 128
-30 19 -84 62 -120 96 -36 34 -104 83 -150 110 -96 55 -131 86 -131 116 0 11
-7 23 -16 27 -18 7 -46 29 -118 94 -28 26 -65 54 -82 62 -42 21 -119 107 -227
252 -101 136 -116 154 -93 108 21 -42 20 -46 -5 -33 -19 11 -20 10 -8 -12 7
-13 50 -84 95 -159 98 -159 102 -169 79 -169 -16 0 -49 30 -88 78 -9 13 -31
25 -48 29 -23 4 -31 12 -36 34 -3 16 -12 29 -20 29 -16 0 -11 -12 44 -97 18
-28 33 -58 33 -66 0 -8 30 -46 68 -85 71 -75 144 -163 150 -181 9 -26 -39 -8
-68 26 -17 21 -24 27 -16 13 30 -46 141 -169 154 -169 8 -1 16 -10 19 -21 3
-11 11 -20 18 -20 7 0 15 -7 19 -15 3 -8 16 -15 28 -15 20 1 21 2 6 11 -10 5
-18 17 -18 24 0 8 -6 15 -14 15 -15 0 -76 68 -76 84 0 6 21 -10 48 -35 26 -26
55 -49 65 -52 9 -4 17 -15 17 -26 0 -25 41 -54 64 -45 9 3 16 1 16 -5 0 -6 6
-8 13 -5 8 3 25 -11 40 -33 41 -59 233 -227 342 -300 109 -72 518 -306 620
-354 123 -58 285 -110 461 -150 73 -16 165 -41 205 -54 80 -27 348 -84 425
-90 27 -2 49 -4 49 -4 0 -1 74 -4 165 -7 260 -8 274 -10 251 -37 -9 -12 0 -16
57 -21 38 -4 98 -3 133 3 35 5 102 10 149 10 86 1 167 12 228 32 25 8 37 8 45
0 8 -8 15 -7 27 4 10 9 63 21 131 30 62 8 123 18 134 22 19 6 18 7 -5 13 -24
6 -24 7 15 27 32 17 42 18 52 8 8 -9 9 -15 0 -24 -17 -17 4 -14 128 17 86 22
110 32 110 45 0 10 7 22 15 28 13 9 12 10 -2 5 -10 -3 -18 -2 -18 2 1 8 229
113 245 112 6 0 1 -7 -9 -15 -19 -14 -19 -15 7 -15 20 0 28 6 33 25 5 19 13
25 33 25 37 0 142 35 213 71 32 16 66 29 76 29 11 0 25 7 32 15 7 8 23 15 36
15 14 0 40 15 61 35 41 39 205 135 232 135 20 1 131 59 113 60 -20 0 -4 20 17
20 9 0 30 14 47 31 29 31 188 159 197 159 2 0 26 21 54 47 27 27 88 83 136
126 92 83 282 294 372 412 70 93 143 215 282 470 63 116 121 216 127 223 8 8
58 18 122 24 60 6 119 14 132 19 26 10 22 22 -32 94 -18 23 -49 75 -70 116
l-38 74 72 210 c82 238 109 355 145 640 38 305 45 403 45 620 0 408 -34 807
-91 1088 -39 193 -180 572 -284 763 -93 171 -350 542 -472 682 -42 48 -106
127 -144 177 -92 123 -208 218 -514 422 -199 132 -249 161 -439 249 -179 84
-714 268 -876 302 -107 23 -277 48 -390 57 -41 4 -140 13 -220 20 -144 14
-618 26 -695 18z m530 -313 c438 -31 807 -103 1123 -219 228 -84 675 -294 853
-400 97 -57 712 -770 870 -1008 86 -129 89 -137 158 -345 38 -117 77 -240 85
-273 22 -87 56 -302 56 -357 0 -26 5 -50 11 -54 6 -3 9 -17 6 -30 -2 -13 0
-21 4 -18 5 3 9 -6 9 -20 0 -16 6 -26 14 -26 8 0 17 -8 21 -17 11 -28 27 -362
20 -418 -9 -72 -21 -87 -30 -35 -4 23 -10 38 -14 33 -3 -6 -11 -12 -17 -14 -7
-3 -7 -18 -1 -47 8 -40 11 -43 33 -38 27 7 32 -5 9 -24 -19 -16 -19 -53 0 -90
9 -16 14 -42 13 -58 -1 -15 1 -33 6 -40 10 -16 -26 -16 -42 0 -9 9 -12 0 -12
-43 0 -59 24 -124 42 -113 6 4 8 -1 5 -12 -21 -67 -26 -110 -42 -344 -17 -233
-22 -265 -41 -281 -12 -9 -14 -4 -14 29 0 31 -5 44 -20 52 -24 13 -24 11 -5
-60 8 -30 15 -56 15 -58 0 -1 -9 2 -19 7 -23 13 -31 -2 -31 -62 -1 -23 -7 -53
-15 -67 -18 -32 -19 -51 -1 -75 13 -17 15 -14 26 40 16 83 20 96 30 90 4 -3 4
-22 -1 -42 -4 -21 -5 -56 -2 -79 3 -23 0 -50 -6 -60 -5 -11 -11 -13 -11 -6 0
6 -5 12 -10 12 -6 0 -8 -11 -4 -25 3 -14 2 -25 -2 -25 -12 1 -290 413 -385
571 -42 70 -110 173 -152 230 -42 57 -169 241 -283 409 -114 168 -219 319
-234 336 -15 18 -77 115 -138 215 -61 101 -164 262 -230 357 l-120 173 -7 72
c-4 40 -5 138 -3 220 l3 147 -131 0 c-119 0 -134 2 -164 23 -39 25 -113 122
-257 333 -56 83 -191 269 -299 414 -108 146 -255 344 -325 442 -148 202 -421
559 -485 633 -47 53 -54 69 -26 61 9 -3 85 -10 167 -16z m-359 -207 c38 -49
120 -153 184 -233 146 -183 338 -458 711 -1015 162 -242 299 -446 303 -453 7
-11 -39 -12 -260 -7 -243 6 -298 4 -574 -20 -187 -16 -438 -30 -650 -36 -190
-5 -401 -13 -470 -18 -161 -13 -710 -26 -710 -18 0 7 275 389 344 477 23 30
48 70 55 88 8 18 21 32 30 32 25 0 146 159 147 193 0 16 5 32 10 35 5 4 29 34
53 67 54 74 102 126 111 120 7 -4 59 56 74 85 4 8 0 6 -8 -4 -9 -11 -18 -17
-22 -14 -3 3 11 29 32 58 32 44 39 49 47 35 7 -14 11 -15 18 -4 4 8 3 16 -3
20 -7 4 31 66 98 163 60 85 136 195 169 243 123 181 211 293 231 293 7 0 43
-39 80 -87z m1435 -2035 c9 -7 34 -42 56 -78 l40 -65 7 -155 c12 -259 17 -710
8 -710 -4 0 -18 35 -31 77 -34 118 -81 211 -182 361 -93 139 -203 263 -293
330 -27 20 -138 81 -245 134 l-196 97 50 2 c28 1 185 5 350 9 165 3 327 7 361
8 36 1 66 -3 75 -10z m-1961 -69 c-8 -5 -40 -24 -70 -42 -185 -109 -529 -461
-665 -679 -32 -51 -51 -62 -42 -25 7 27 19 370 21 572 l1 150 135 7 c509 29
644 32 620 17z m820 -133 c131 -6 212 -42 453 -202 111 -75 219 -152 240 -172
46 -44 176 -220 205 -278 12 -23 37 -107 57 -186 l35 -146 -20 -118 c-12 -66
-23 -154 -26 -197 -5 -79 -35 -178 -75 -246 -24 -40 -15 -56 11 -21 19 25 19
24 1 -35 -23 -73 -87 -236 -113 -288 -43 -87 -195 -292 -243 -330 -163 -129
-262 -180 -431 -223 -193 -49 -282 -58 -484 -51 -271 10 -313 21 -550 135
-100 49 -126 67 -207 145 -88 85 -128 111 -83 54 35 -44 22 -51 -23 -12 -22
20 -26 29 -18 42 8 14 -2 39 -41 113 -59 109 -142 232 -152 223 -3 -3 -17 18
-31 48 -14 30 -22 43 -19 29 4 -14 13 -46 20 -72 12 -49 3 -64 -16 -28 -12 22
-36 27 -43 8 -8 -26 99 -248 153 -318 56 -72 63 -79 55 -57 -13 31 1 18 44
-42 43 -62 50 -77 29 -65 -7 4 -2 -5 11 -19 14 -15 35 -27 48 -27 13 0 23 -5
23 -10 0 -6 17 -29 38 -53 21 -23 44 -51 52 -61 14 -18 13 -19 -2 -13 -10 4
-26 10 -35 13 -15 5 42 -33 176 -119 16 -9 41 -19 57 -21 16 -1 69 -23 119
-48 l90 -46 -115 -6 c-63 -3 -258 -8 -432 -11 l-318 -5 -1 52 c-3 213 -11 374
-24 504 -16 158 -24 882 -10 904 5 8 12 6 25 -5 35 -32 80 22 80 96 0 16 8 44
17 64 16 33 16 36 -1 48 -14 11 -15 17 -6 42 6 16 20 38 31 48 12 11 19 31 19
52 0 19 5 35 10 35 6 0 10 7 10 15 0 8 4 15 9 15 10 0 23 32 25 60 1 8 9 24
19 35 10 11 29 34 42 50 l24 30 1 -26 c0 -14 -3 -29 -7 -35 -5 -5 0 0 10 11
13 14 17 29 14 51 -5 27 1 37 40 75 25 24 61 67 79 96 24 36 55 66 103 97 39
25 77 56 86 70 9 14 25 28 36 31 10 4 19 14 19 24 0 17 18 41 31 41 4 0 5 -9
2 -20 -7 -25 1 -25 44 1 36 22 40 39 5 20 -24 -13 -32 -14 -32 -3 0 25 378
202 431 202 18 0 62 9 98 19 100 30 87 29 331 17z m1674 -591 c22 -38 81 -124
130 -190 50 -66 203 -294 342 -507 257 -395 721 -1038 869 -1205 40 -44 45
-55 36 -72 -11 -20 -20 -20 -465 -21 -250 0 -490 -4 -533 -9 -124 -15 -396
-23 -412 -12 -9 5 -24 6 -38 0 -20 -7 -24 -5 -29 19 -3 15 -8 33 -10 41 -3 8
-1 97 2 198 6 167 9 183 24 178 20 -6 29 17 31 75 l1 35 14 -40 13 -40 -6 50
c-4 28 -7 60 -8 73 0 12 -4 22 -8 22 -4 0 -3 9 3 20 6 11 8 25 5 30 -4 6 -8
39 -10 75 -4 72 -12 95 -26 74 -15 -23 -29 9 -29 65 0 42 2 48 19 43 16 -4 17
-1 7 24 -6 16 -14 29 -18 29 -4 0 -8 38 -8 85 0 69 3 85 15 85 18 0 18 1 0 36
-18 34 -22 270 -5 259 6 -4 10 8 10 29 0 20 -3 36 -7 36 -8 0 -8 68 3 418 6
202 6 203 26 185 11 -10 39 -49 62 -88z m-440 -1585 c4 -36 16 -147 28 -248
12 -100 18 -186 14 -190 -9 -9 -886 -39 -886 -31 0 4 14 12 32 20 49 20 174
105 226 153 26 23 74 62 107 86 139 101 241 237 376 501 l84 164 6 -195 c3
-107 9 -224 13 -260z m-556 -2696 c-3 -3 -39 -12 -79 -19 -41 -8 -111 -21
-156 -29 -46 -9 -91 -13 -100 -9 -13 4 -15 3 -8 -5 6 -6 21 -12 35 -14 14 -2
-11 -9 -55 -15 -86 -11 -102 -9 -64 7 19 8 14 9 -26 4 -27 -3 -90 -7 -140 -9
-139 -6 -70 10 195 45 129 18 258 35 285 40 63 9 120 12 113 4z"/>
<path d="M1312 4215 c-11 -14 -25 -25 -31 -25 -6 0 -11 -4 -11 -9 0 -6 -11
-22 -25 -37 -14 -15 -25 -32 -25 -38 0 -6 10 0 21 14 l21 25 -7 -30 c-6 -32
-36 -63 -129 -133 -31 -24 -68 -61 -82 -82 l-26 -38 22 -22 c17 -17 24 -19 36
-9 8 6 14 17 14 25 0 7 20 29 45 50 29 24 44 42 40 52 -6 15 70 122 86 122 5
0 9 8 9 19 0 10 7 24 15 31 12 10 15 10 15 0 0 -23 -33 -81 -54 -95 -14 -10
-16 -15 -6 -15 8 0 39 36 68 80 28 44 48 80 43 80 -5 0 -13 -9 -16 -20 -8 -24
-23 -26 -32 -4 -4 10 0 22 9 28 15 11 34 56 24 56 -2 0 -13 -11 -24 -25z"/>
<path d="M387 3978 c-2 -7 0 -44 5 -82 13 -97 5 -125 -12 -38 -8 45 -16 68
-21 60 -5 -7 -6 -21 -3 -30 3 -12 0 -18 -10 -18 -11 0 -16 -9 -16 -29 0 -42
-13 -45 -34 -10 -14 24 -20 28 -32 18 -13 -10 -12 -14 1 -29 9 -9 15 -35 15
-61 0 -24 6 -64 14 -89 7 -25 17 -76 21 -113 6 -60 9 -67 25 -62 15 5 21 -4
36 -52 10 -32 19 -71 21 -88 2 -16 8 -43 13 -60 8 -24 9 -19 5 29 -5 57 -5 58
17 52 65 -18 68 -18 68 -4 0 18 -29 58 -30 41 0 -16 -26 -17 -35 -2 -4 5 0 18
9 28 22 24 20 40 -6 50 -23 9 -23 9 5 22 27 12 28 14 21 68 -4 31 -13 74 -21
96 -12 33 -32 212 -33 293 0 24 -15 30 -23 10z"/>
</g>
</svg>
