<?xml version="1.0" standalone="no"?>
<!DOCTYPE svg PUBLIC "-//W3C//DTD SVG 20010904//EN"
 "http://www.w3.org/TR/2001/REC-SVG-20010904/DTD/svg10.dtd">
<svg version="1.0" xmlns="http://www.w3.org/2000/svg"
 width="481.000000pt" height="481.000000pt" viewBox="0 0 481.000000 481.000000"
 preserveAspectRatio="xMidYMid meet">
<metadata>
Created by potrace 1.11, written by Peter Selinger 2001-2013
</metadata>
<g transform="translate(0.000000,481.000000) scale(0.100000,-0.100000)"
fill="#000000" stroke="none">
<path d="M2277 4474 c-1 -1 -51 -4 -112 -7 -60 -4 -120 -9 -132 -11 -30 -6
-118 -19 -120 -18 -2 1 -21 -5 -43 -13 -22 -8 -40 -13 -40 -11 0 2 -42 -12
-92 -31 -51 -19 -97 -35 -103 -37 -97 -28 -359 -175 -435 -243 -14 -13 -29
-23 -34 -23 -18 0 -237 -230 -230 -242 4 -6 3 -8 -3 -5 -18 11 -120 -162 -153
-259 -28 -79 -35 -134 -34 -249 2 -173 58 -277 182 -339 28 -15 52 -24 52 -21
0 3 9 1 19 -4 22 -12 75 -21 147 -25 l52 -2 -11 25 c-6 14 -14 31 -18 36 -7
10 -15 43 -25 105 -14 86 -2 281 25 410 24 114 99 274 167 356 18 23 30 45 26
49 -4 3 -2 5 3 3 6 -2 31 18 55 43 25 25 65 61 90 81 85 67 260 149 236 109
-3 -4 -8 -21 -10 -37 -11 -59 -15 -75 -31 -144 -1 -3 -7 -32 -14 -65 -7 -33
-23 -107 -36 -165 -13 -58 -26 -117 -29 -132 -4 -16 -8 -40 -11 -55 -3 -16
-10 -44 -15 -63 -5 -19 -11 -46 -14 -60 -2 -14 -20 -97 -40 -185 -33 -153 -83
-380 -91 -418 -2 -10 -6 -26 -9 -35 -3 -9 -8 -32 -11 -49 -3 -18 -12 -61 -20
-95 -8 -35 -16 -74 -19 -88 -3 -14 -11 -47 -16 -75 -6 -27 -13 -61 -16 -74 -3
-14 -13 -61 -24 -105 -10 -44 -16 -84 -14 -88 3 -4 1 -8 -3 -8 -5 0 -9 -8 -10
-17 -3 -26 -10 -61 -23 -118 -11 -45 -15 -65 -24 -115 -1 -8 -5 -24 -9 -35 -3
-11 -8 -31 -11 -45 -2 -14 -15 -77 -29 -140 -15 -63 -28 -126 -31 -140 -8 -38
-44 -199 -56 -250 -6 -25 -13 -58 -16 -75 -3 -16 -9 -46 -14 -65 -5 -19 -11
-46 -14 -60 -5 -25 -8 -38 -21 -95 -4 -16 -16 -61 -28 -100 -11 -38 -21 -72
-21 -75 -8 -50 -87 -197 -130 -242 -68 -69 -194 -101 -301 -75 -43 11 -129 62
-157 93 -80 90 -79 296 0 404 65 88 119 114 237 114 78 0 97 -3 145 -27 30
-14 68 -38 85 -52 l29 -26 8 21 c4 12 6 26 3 30 -3 5 -1 11 5 15 5 3 8 47 7
103 -2 76 -8 107 -26 145 -12 27 -25 47 -28 44 -3 -3 -15 5 -27 17 -27 30
-113 60 -206 73 -14 2 -71 4 -127 4 -84 0 -115 -5 -175 -25 -40 -14 -74 -30
-76 -36 -2 -6 -7 -8 -12 -5 -4 2 -15 -4 -25 -15 -10 -11 -23 -20 -29 -20 -15
-1 -93 -97 -127 -157 -91 -158 -106 -367 -40 -555 37 -108 125 -218 217 -273
52 -32 161 -71 222 -81 86 -13 394 -6 420 10 4 2 25 7 47 10 89 14 276 90 297
121 4 5 8 6 8 2 0 -28 185 147 241 228 100 145 181 325 235 524 13 47 22 87
19 89 -2 3 0 12 5 22 8 14 24 84 45 191 2 9 13 60 24 113 12 53 24 113 27 133
3 20 10 48 16 62 5 14 9 27 8 29 -1 1 1 15 4 30 3 15 8 42 11 61 3 19 7 37 9
40 2 3 7 24 10 46 4 22 8 47 11 55 2 8 6 26 9 40 3 14 8 36 11 50 3 14 7 36
10 50 2 14 16 80 30 145 15 66 28 131 31 145 3 14 10 45 15 70 6 25 13 55 15
68 7 38 13 66 19 92 3 14 8 34 10 45 2 11 11 56 20 100 23 110 24 117 31 145
3 14 7 34 9 45 2 11 11 54 20 95 9 41 19 89 22 105 2 17 11 55 18 85 7 30 16
69 18 85 3 17 12 62 21 100 8 39 17 82 20 95 3 14 12 57 21 95 9 39 18 82 20
97 2 15 6 36 10 47 3 10 8 32 10 47 3 24 15 81 40 189 3 11 8 36 11 55 8 41
12 61 19 93 3 12 7 33 10 47 2 14 8 45 14 70 6 25 11 47 11 50 0 4 -138 8
-143 4z"/>
<path d="M3767 4474 c-1 -1 -42 -5 -92 -8 -49 -4 -101 -8 -115 -10 -64 -10
-125 -23 -195 -42 -11 -3 -27 -7 -35 -9 -8 -2 -16 -4 -17 -5 -2 -2 -6 -3 -10
-4 -27 -6 -123 -41 -148 -54 -16 -9 -36 -17 -43 -18 -34 -6 -296 -152 -339
-189 -7 -5 -39 -30 -72 -55 -33 -25 -60 -51 -61 -57 0 -7 -4 -12 -9 -10 -24 6
-241 -249 -241 -282 0 -6 -3 -11 -7 -11 -11 0 -70 -126 -84 -180 -32 -126 -33
-264 -1 -367 12 -40 27 -73 32 -73 6 0 10 -6 10 -13 0 -20 68 -76 123 -102 60
-27 130 -44 204 -49 56 -3 68 1 54 18 -5 6 -18 37 -29 69 -18 51 -20 78 -18
215 3 139 5 176 20 257 50 273 218 508 457 639 61 33 219 99 219 90 0 -2 11 1
24 6 13 5 43 12 67 15 24 4 46 8 50 10 25 16 326 25 406 12 115 -18 258 -112
307 -202 9 -16 20 -37 26 -45 28 -45 54 -128 66 -210 14 -98 4 -295 -19 -365
-3 -11 -9 -33 -11 -50 -8 -46 -68 -209 -80 -217 -6 -4 -8 -8 -3 -8 8 0 -53
-118 -85 -162 -11 -16 -17 -28 -14 -28 3 0 -8 -14 -24 -32 -16 -17 -26 -36
-23 -41 3 -6 2 -8 -3 -5 -5 3 -31 -20 -59 -52 -27 -32 -56 -59 -62 -59 -7 -1
-13 -4 -13 -8 0 -5 -20 -21 -45 -38 -24 -16 -45 -33 -45 -37 0 -5 -9 -8 -19
-8 -11 0 -23 -5 -26 -10 -7 -11 -68 -39 -100 -46 -11 -2 -33 -6 -48 -10 -46
-10 -77 -12 -72 -4 2 4 7 22 10 41 3 19 15 75 26 124 27 119 25 113 35 165 9
51 11 59 13 63 2 1 4 13 7 27 2 14 9 48 15 75 6 28 13 59 14 70 2 11 13 61 24
110 11 50 22 101 25 115 2 14 11 57 20 95 9 39 18 82 20 98 3 15 7 35 10 45 3
9 7 28 10 42 2 14 9 45 15 70 5 25 12 59 15 75 3 17 8 41 11 55 6 26 10 44 20
95 3 17 8 40 11 52 3 15 0 21 -8 18 -7 -2 -33 -6 -58 -9 -25 -2 -45 -5 -45 -6
0 -1 -13 -3 -30 -5 -28 -3 -57 -6 -159 -20 -22 -3 -51 -7 -65 -10 -14 -2 -48
-7 -76 -10 -133 -17 -180 -25 -186 -33 -6 -7 -45 -184 -54 -247 -2 -11 -4 -20
-5 -20 -2 0 -8 -28 -15 -70 -2 -16 -11 -57 -19 -90 -9 -33 -17 -77 -20 -97 -2
-21 -7 -41 -9 -45 -3 -4 -8 -24 -11 -43 -3 -19 -14 -73 -25 -119 -11 -46 -18
-88 -15 -92 2 -4 0 -10 -5 -13 -7 -5 -21 -64 -26 -111 -1 -5 -4 -19 -8 -30 -3
-11 -9 -36 -12 -55 -3 -19 -8 -42 -10 -50 -2 -8 -7 -31 -10 -50 -3 -19 -10
-51 -15 -70 -5 -19 -12 -50 -15 -69 -3 -19 -7 -37 -9 -40 -2 -3 -7 -23 -10
-43 -3 -21 -11 -59 -17 -85 -6 -27 -12 -57 -15 -68 -7 -39 -24 -120 -30 -145
-3 -14 -7 -35 -10 -48 -2 -13 -16 -76 -30 -140 -34 -154 -33 -152 -40 -187 -3
-16 -9 -48 -15 -70 -5 -22 -12 -49 -14 -60 -7 -29 -18 -88 -20 -105 -1 -8 -7
-33 -13 -55 -6 -22 -14 -56 -16 -75 -3 -19 -19 -96 -36 -170 -17 -74 -33 -144
-35 -155 -4 -20 1 -20 300 -20 167 0 307 3 310 6 3 4 8 16 10 28 22 100 38
176 40 191 1 8 7 33 13 55 6 22 14 58 17 80 3 22 10 54 15 70 5 17 11 46 14
66 3 20 8 42 10 50 3 8 7 25 10 39 2 14 9 45 15 70 5 25 13 61 16 80 3 19 10
51 15 70 5 19 12 51 15 70 3 19 10 51 15 70 5 19 19 82 31 140 11 58 23 115
26 127 4 19 12 21 72 22 37 0 84 3 104 6 113 16 122 18 187 35 25 7 54 14 65
16 62 11 315 136 315 156 0 4 5 8 11 8 12 0 73 44 112 82 16 15 36 33 45 40
32 24 115 123 162 193 94 141 163 308 186 455 12 73 10 248 -2 315 -8 39 -15
79 -17 90 -2 11 -11 35 -21 53 -9 17 -14 32 -11 32 7 0 -48 104 -57 108 -5 2
-8 10 -8 18 0 8 -4 14 -10 14 -5 0 -10 6 -10 13 0 37 -240 237 -284 237 -10 0
-14 5 -11 10 3 6 2 10 -3 10 -5 0 -26 7 -46 15 -20 8 -38 15 -41 15 -3 1 -25
9 -50 20 -25 11 -45 18 -45 15 0 -2 -15 1 -32 6 -31 9 -45 12 -121 24 -57 9
-245 23 -250 19z"/>
</g>
</svg>
